<svg width="107" height="62" viewBox="0 0 107 62" fill="none" xmlns="http://www.w3.org/2000/svg">
<path fill-rule="evenodd" clip-rule="evenodd" d="M14.0403 5.16729C19.0964 1.79181 25.0393 -0.00648485 31.117 1.75718e-05C35.1465 -0.000898165 39.1367 0.792794 42.8596 2.33575C46.5826 3.87871 49.9653 6.1407 52.8146 8.9925C55.6639 11.8443 57.9238 15.23 59.4654 18.9562C60.9639 22.5781 61.755 26.4528 61.7973 30.3706L74.6664 17.4904C78.1778 13.9759 82.9403 12.0015 87.9061 12.0015C92.872 12.0015 97.6345 13.9759 101.146 17.4904C104.657 21.0049 106.63 25.7717 106.63 30.742C106.63 35.7123 104.657 40.4788 101.146 43.9933C99.4072 45.7335 97.3431 47.114 95.0714 48.0558C92.7998 48.9976 90.365 49.4823 87.9061 49.4823C85.4473 49.4823 83.0125 48.9976 80.7408 48.0558C78.4691 47.114 76.4051 45.7335 74.6664 43.9933L61.7969 31.1127C61.7254 37.055 59.9343 42.8524 56.6364 47.801C53.2639 52.8615 48.4672 56.8069 42.8534 59.1378C37.2397 61.4687 31.0612 62.0802 25.1 60.8951C19.1388 59.71 13.6629 56.7814 9.36537 52.48C5.06782 48.1787 2.14183 42.698 0.957734 36.7315C-0.226363 30.7651 0.384665 24.5812 2.71348 18.9624C5.0423 13.3437 8.98421 8.54278 14.0403 5.16729ZM38.5981 49.11C42.2332 48.3907 45.5741 46.61 48.1991 43.9925L61.4049 30.7092L48.1991 17.4918C44.6835 13.986 39.9231 12.0176 34.9605 12.0176C29.9978 12.0176 25.2374 13.986 21.7218 17.4918C19.9736 19.2197 18.5856 21.2777 17.6383 23.5467C16.6909 25.8156 16.203 28.2502 16.203 30.7092C16.2063 34.418 17.307 38.0426 19.3663 41.1259C21.4256 44.2091 24.3511 46.6129 27.7738 48.0338C31.1965 49.4547 34.963 49.8292 38.5981 49.11Z" fill="url(#paint0_linear_903_17046)"/>
<defs>
<linearGradient id="paint0_linear_903_17046" x1="1.2001" y1="32.2829" x2="61.9476" y2="31.3707" gradientUnits="userSpaceOnUse">
<stop stop-color="#4585D4"/>
<stop offset="1" stop-color="#E6218C"/>
</linearGradient>
</defs>
</svg>
