<svg width="113" height="29" viewBox="0 0 113 29" fill="none" xmlns="http://www.w3.org/2000/svg">
<path fill-rule="evenodd" clip-rule="evenodd" d="M6.30417 2.38279C8.63568 0.826256 11.3762 -0.00299035 14.1787 8.10287e-06C16.0368 -0.00041417 17.8768 0.365581 19.5936 1.07708C21.3104 1.78859 22.8702 2.83166 24.1841 4.1467C25.498 5.46175 26.5402 7.02301 27.251 8.74128C27.942 10.4114 28.3068 12.1981 28.3263 14.0048L34.2606 8.06534C35.8798 6.44471 38.076 5.53424 40.3659 5.53424C42.6558 5.53424 44.8519 6.44471 46.4711 8.06534C48.0903 9.686 49 11.8841 49 14.176C49 16.468 48.0903 18.666 46.4711 20.2866C45.6694 21.0891 44.7175 21.7256 43.67 22.1599C42.6225 22.5942 41.4997 22.8177 40.3659 22.8177C39.232 22.8177 38.1093 22.5942 37.0617 22.1599C36.0142 21.7256 35.0624 21.0891 34.2606 20.2866L28.3261 14.347C28.2932 17.0871 27.4672 19.7605 25.9465 22.0424C24.3913 24.376 22.1794 26.1953 19.5908 27.2702C17.0021 28.345 14.153 28.627 11.4041 28.0805C8.65525 27.534 6.13015 26.1836 4.14842 24.2001C2.1667 22.2166 0.81744 19.6893 0.271418 16.938C-0.274604 14.1867 0.00715858 11.3351 1.08104 8.74413C2.15493 6.15317 3.97266 3.93933 6.30417 2.38279ZM17.6285 22.646C19.3048 22.3144 20.8453 21.4932 22.0558 20.2862L28.1454 14.1609L22.0558 8.06597C20.4347 6.44937 18.2395 5.54166 15.9511 5.54166C13.6626 5.54166 11.4675 6.44937 9.84634 8.06597C9.04021 8.86275 8.40016 9.81179 7.9633 10.8581C7.52644 11.9043 7.30147 13.027 7.30144 14.1609C7.30298 15.8711 7.81056 17.5426 8.76016 18.9643C9.70975 20.3861 11.0588 21.4946 12.6371 22.1498C14.2154 22.805 15.9523 22.9777 17.6285 22.646Z" fill="url(#paint0_linear_903_17144)"/>
<path d="M60.4825 5.60293V20.1132H57V5.60293H60.4825Z" fill="black"/>
<path d="M66.0948 8.65009V11.7214H66.3366C66.9896 9.49652 68.3681 8.3357 70.1819 8.3357C72.3826 8.3357 73.4951 9.85928 73.4951 12.3502V20.1132H70.2061V13.2692C70.2061 12.1084 69.6498 11.3103 68.4648 11.3103C67.038 11.3103 66.1674 12.3018 66.1674 13.7287V20.1132H62.8784V8.65009H66.0948Z" fill="black"/>
<path d="M79.862 8.21478V8.65009H82.5706V11.2619H79.862V20.1132H76.573V11.2619H74.9043V8.65009H76.573V8.11805C76.573 5.82058 77.8547 4.17609 80.6843 4.17609C81.6516 4.17609 82.1836 4.27282 82.6673 4.39374L82.5464 6.66702C82.1111 6.59447 81.7 6.5461 81.3372 6.5461C80.394 6.5461 79.862 7.05396 79.862 8.21478Z" fill="black"/>
<path d="M84.0876 4.58721H87.3766V20.1132H84.0876V4.58721Z" fill="black"/>
<path d="M92.9709 19.9681L88.6904 8.65009H92.2938L93.4304 12.8581C93.7932 14.1398 94.1801 15.6392 94.5429 17.0177H94.954C95.341 15.5908 95.7037 14.164 95.9939 12.9306L97.058 8.65009H100.589L96.0665 20.1616C94.9782 22.9669 93.503 24.1761 90.6251 24.1761C89.827 24.1761 89.3192 24.1035 88.7388 24.0068L89.2225 21.2257C89.7061 21.3224 90.214 21.3949 90.6977 21.3949C91.8585 21.3949 92.4631 21.1531 92.9709 19.9681Z" fill="black"/>
<path d="M100.715 8.65009H104.488L106.495 13.0757H106.906L108.72 8.65009H112.202V8.91611L109.082 14.6235L112.347 19.8472V20.1132H108.575L106.567 15.5908H106.132L104.342 20.1132H100.666V19.8472L103.955 14.1156L100.715 8.91611V8.65009Z" fill="black"/>
<defs>
<linearGradient id="paint0_linear_903_17144" x1="0.383181" y1="14.8866" x2="28.3956" y2="14.466" gradientUnits="userSpaceOnUse">
<stop stop-color="#4585D4"/>
<stop offset="1" stop-color="#E6218C"/>
</linearGradient>
</defs>
</svg>
